<?xml version="1.0" encoding="utf-8"?><svg xmlns="http://www.w3.org/2000/svg" xmlns:xlink="http://www.w3.org/1999/xlink"><symbol fill="none" stroke="#000" stroke-width="2" stroke-linecap="round" stroke-linejoin="round" viewBox="0 0 24 24" id="sigma-chevron-left" xmlns="http://www.w3.org/2000/svg"><path d="m15 18-6-6 6-6"/></symbol><symbol fill="none" stroke="currentColor" stroke-width="2" stroke-linecap="round" stroke-linejoin="round" viewBox="0 0 24 24" id="sigma-chevron-right" xmlns="http://www.w3.org/2000/svg"><path d="m9 18 6-6-6-6"/></symbol><symbol fill="none" stroke="currentColor" stroke-width="2" stroke-linecap="round" stroke-linejoin="round" viewBox="0 0 24 24" id="sigma-maximize" xmlns="http://www.w3.org/2000/svg"><path d="M8 3H5a2 2 0 0 0-2 2v3M21 8V5a2 2 0 0 0-2-2h-3M3 16v3a2 2 0 0 0 2 2h3M16 21h3a2 2 0 0 0 2-2v-3"/></symbol><symbol fill="none" stroke="currentColor" stroke-width="2" stroke-linecap="round" stroke-linejoin="round" viewBox="0 0 24 24" id="sigma-minimize" xmlns="http://www.w3.org/2000/svg"><path d="M8 3v3a2 2 0 0 1-2 2H3M21 8h-3a2 2 0 0 1-2-2V3M3 16h3a2 2 0 0 1 2 2v3M16 21v-3a2 2 0 0 1 2-2h3"/></symbol><symbol fill="none" stroke="currentColor" stroke-width="2" stroke-linecap="round" stroke-linejoin="round" viewBox="0 0 24 24" id="sigma-pause" xmlns="http://www.w3.org/2000/svg"><rect x="14" y="4" width="4" height="16" rx="1"/><rect x="6" y="4" width="4" height="16" rx="1"/></symbol><symbol fill="none" stroke="currentColor" stroke-width="2" stroke-linecap="round" stroke-linejoin="round" viewBox="0 0 24 24" id="sigma-pip" xmlns="http://www.w3.org/2000/svg"><path d="M21 9V6a2 2 0 0 0-2-2H4a2 2 0 0 0-2 2v10c0 1.1.9 2 2 2h4"/><rect width="10" height="7" x="12" y="13" rx="2"/></symbol><symbol fill="none" stroke="currentColor" stroke-width="2" stroke-linecap="round" stroke-linejoin="round" viewBox="0 0 24 24" id="sigma-play" xmlns="http://www.w3.org/2000/svg"><path d="m6 3 14 9-14 9V3z"/></symbol><symbol fill="none" stroke-width=".75" stroke-linecap="round" stroke-linejoin="round" viewBox="0 0 24 24" id="sigma-play-btn" xmlns="http://www.w3.org/2000/svg"><path fill="#fff" d="m10 8 6 4-6 4z"/></symbol><symbol fill="none" stroke="currentColor" stroke-width="2" stroke-linecap="round" stroke-linejoin="round" viewBox="0 0 24 24" id="sigma-settings" xmlns="http://www.w3.org/2000/svg"><path d="M12.22 2h-.44a2 2 0 0 0-2 2v.18a2 2 0 0 1-1 1.73l-.43.25a2 2 0 0 1-2 0l-.15-.08a2 2 0 0 0-2.73.73l-.22.38a2 2 0 0 0 .73 2.73l.15.1a2 2 0 0 1 1 1.72v.51a2 2 0 0 1-1 1.74l-.15.09a2 2 0 0 0-.73 2.73l.22.38a2 2 0 0 0 2.73.73l.15-.08a2 2 0 0 1 2 0l.43.25a2 2 0 0 1 1 1.73V20a2 2 0 0 0 2 2h.44a2 2 0 0 0 2-2v-.18a2 2 0 0 1 1-1.73l.43-.25a2 2 0 0 1 2 0l.15.08a2 2 0 0 0 2.73-.73l.22-.39a2 2 0 0 0-.73-2.73l-.15-.08a2 2 0 0 1-1-1.74v-.5a2 2 0 0 1 1-1.74l.15-.09a2 2 0 0 0 .73-2.73l-.22-.38a2 2 0 0 0-2.73-.73l-.15.08a2 2 0 0 1-2 0l-.43-.25a2 2 0 0 1-1-1.73V4a2 2 0 0 0-2-2z"/><circle cx="12" cy="12" r="3"/></symbol><symbol fill="none" stroke="currentColor" stroke-width="2" stroke-linecap="round" stroke-linejoin="round" viewBox="0 0 24 24" id="sigma-volume-0" xmlns="http://www.w3.org/2000/svg"><path d="M11 4.702a.705.705 0 0 0-1.203-.498L6.413 7.587A1.4 1.4 0 0 1 5.416 8H3a1 1 0 0 0-1 1v6a1 1 0 0 0 1 1h2.416a1.4 1.4 0 0 1 .997.413l3.383 3.384A.705.705 0 0 0 11 19.298zM22 9l-6 6M16 9l6 6"/></symbol><symbol fill="none" stroke="currentColor" stroke-width="2" stroke-linecap="round" stroke-linejoin="round" viewBox="0 0 24 24" id="sigma-volume-2" xmlns="http://www.w3.org/2000/svg"><path d="M11 4.702a.705.705 0 0 0-1.203-.498L6.413 7.587A1.4 1.4 0 0 1 5.416 8H3a1 1 0 0 0-1 1v6a1 1 0 0 0 1 1h2.416a1.4 1.4 0 0 1 .997.413l3.383 3.384A.705.705 0 0 0 11 19.298zM16 9a5 5 0 0 1 0 6M19.364 18.364a9 9 0 0 0 0-12.728"/></symbol></svg>